#define max_width 8
#define max_height 8
static unsigned char max_bits[] = {
   0x00, 0x66, 0x66, 0x00, 0x00, 0x60, 0x60, 0x00 };
